<mxfile host="app.diagrams.net" agent="Mozilla/5.0 (Windows NT 10.0; Win64; x64) AppleWebKit/537.36 (KHTML, like Gecko) Chrome/127.0.0.0 Safari/537.36" version="24.7.17">
  <diagram id="C5RBs43oDa-KdzZeNtuy" name="Page-1">
    <mxGraphModel dx="2227" dy="1922" grid="1" gridSize="10" guides="1" tooltips="1" connect="1" arrows="1" fold="1" page="1" pageScale="1" pageWidth="827" pageHeight="1169" math="0" shadow="0">
      <root>
        <mxCell id="WIyWlLk6GJQsqaUBKTNV-0" />
        <mxCell id="WIyWlLk6GJQsqaUBKTNV-1" parent="WIyWlLk6GJQsqaUBKTNV-0" />
        <mxCell id="xr-yjnaQC8I_60kMwEoU-0" value="AdventureGame" style="swimlane;fontStyle=1;align=center;verticalAlign=top;childLayout=stackLayout;horizontal=1;startSize=26;horizontalStack=0;resizeParent=1;resizeParentMax=0;resizeLast=0;collapsible=1;marginBottom=0;whiteSpace=wrap;html=1;" vertex="1" parent="WIyWlLk6GJQsqaUBKTNV-1">
          <mxGeometry x="80" y="360" width="160" height="310" as="geometry" />
        </mxCell>
        <mxCell id="xr-yjnaQC8I_60kMwEoU-1" value="-player: Player&lt;div&gt;-map: Map&lt;/div&gt;" style="text;strokeColor=none;fillColor=none;align=left;verticalAlign=top;spacingLeft=4;spacingRight=4;overflow=hidden;rotatable=0;points=[[0,0.5],[1,0.5]];portConstraint=eastwest;whiteSpace=wrap;html=1;" vertex="1" parent="xr-yjnaQC8I_60kMwEoU-0">
          <mxGeometry y="26" width="160" height="34" as="geometry" />
        </mxCell>
        <mxCell id="xr-yjnaQC8I_60kMwEoU-2" value="" style="line;strokeWidth=1;fillColor=none;align=left;verticalAlign=middle;spacingTop=-1;spacingLeft=3;spacingRight=3;rotatable=0;labelPosition=right;points=[];portConstraint=eastwest;strokeColor=inherit;" vertex="1" parent="xr-yjnaQC8I_60kMwEoU-0">
          <mxGeometry y="60" width="160" height="8" as="geometry" />
        </mxCell>
        <mxCell id="xr-yjnaQC8I_60kMwEoU-3" value="+getHelp(): String&lt;div&gt;+look(): String&lt;/div&gt;&lt;div&gt;+movePlayer(direction: String)&lt;/div&gt;&lt;div&gt;+playerTakeItem(itemName: String)&lt;/div&gt;&lt;div&gt;+playerDropItem(itemName String)&lt;/div&gt;&lt;div&gt;+showInventory(): String&lt;/div&gt;&lt;div&gt;+getHealthStatus(): String&lt;/div&gt;&lt;div&gt;+eatItem(itemName: String&lt;/div&gt;&lt;div&gt;+attack(enemyName: String)&lt;/div&gt;&lt;div&gt;+attack(): String&lt;/div&gt;&lt;div&gt;+equipWeapon(weponName: String)&lt;/div&gt;" style="text;strokeColor=none;fillColor=none;align=left;verticalAlign=top;spacingLeft=4;spacingRight=4;overflow=hidden;rotatable=0;points=[[0,0.5],[1,0.5]];portConstraint=eastwest;whiteSpace=wrap;html=1;" vertex="1" parent="xr-yjnaQC8I_60kMwEoU-0">
          <mxGeometry y="68" width="160" height="242" as="geometry" />
        </mxCell>
        <mxCell id="xr-yjnaQC8I_60kMwEoU-4" value="Player" style="swimlane;fontStyle=1;align=center;verticalAlign=top;childLayout=stackLayout;horizontal=1;startSize=26;horizontalStack=0;resizeParent=1;resizeParentMax=0;resizeLast=0;collapsible=1;marginBottom=0;whiteSpace=wrap;html=1;" vertex="1" parent="WIyWlLk6GJQsqaUBKTNV-1">
          <mxGeometry x="360" y="360" width="160" height="420" as="geometry" />
        </mxCell>
        <mxCell id="xr-yjnaQC8I_60kMwEoU-5" value="-currentRoom: Room&lt;div&gt;-playerInventory: ArrayList&lt;/div&gt;&lt;div&gt;-health: int&lt;/div&gt;&lt;div&gt;-equippedWeapon: Weapon&lt;/div&gt;" style="text;strokeColor=none;fillColor=none;align=left;verticalAlign=top;spacingLeft=4;spacingRight=4;overflow=hidden;rotatable=0;points=[[0,0.5],[1,0.5]];portConstraint=eastwest;whiteSpace=wrap;html=1;" vertex="1" parent="xr-yjnaQC8I_60kMwEoU-4">
          <mxGeometry y="26" width="160" height="74" as="geometry" />
        </mxCell>
        <mxCell id="xr-yjnaQC8I_60kMwEoU-6" value="" style="line;strokeWidth=1;fillColor=none;align=left;verticalAlign=middle;spacingTop=-1;spacingLeft=3;spacingRight=3;rotatable=0;labelPosition=right;points=[];portConstraint=eastwest;strokeColor=inherit;" vertex="1" parent="xr-yjnaQC8I_60kMwEoU-4">
          <mxGeometry y="100" width="160" height="8" as="geometry" />
        </mxCell>
        <mxCell id="xr-yjnaQC8I_60kMwEoU-7" value="+takeItem(itemName: String)&lt;div&gt;+dropItem(itemName: String)&lt;/div&gt;&lt;div&gt;+equip(weaponName: Equip)&lt;/div&gt;&lt;div&gt;+attack(enemyName: String)&lt;/div&gt;&lt;div&gt;+takeDamage(int: void)&lt;/div&gt;&lt;div&gt;+eat(itemName: Eat)&lt;/div&gt;&lt;div&gt;+getHealth(): String&lt;/div&gt;&lt;div&gt;+showInventory(): String&lt;/div&gt;&lt;div&gt;+getCurrentRoom: Room&lt;/div&gt;&lt;div&gt;+findItem(itemName: Item)&lt;/div&gt;&lt;div&gt;+move(direction: boolean)&lt;/div&gt;&lt;div&gt;&lt;br&gt;&lt;/div&gt;" style="text;strokeColor=none;fillColor=none;align=left;verticalAlign=top;spacingLeft=4;spacingRight=4;overflow=hidden;rotatable=0;points=[[0,0.5],[1,0.5]];portConstraint=eastwest;whiteSpace=wrap;html=1;" vertex="1" parent="xr-yjnaQC8I_60kMwEoU-4">
          <mxGeometry y="108" width="160" height="312" as="geometry" />
        </mxCell>
        <mxCell id="xr-yjnaQC8I_60kMwEoU-9" value="Room" style="swimlane;fontStyle=1;align=center;verticalAlign=top;childLayout=stackLayout;horizontal=1;startSize=26;horizontalStack=0;resizeParent=1;resizeParentMax=0;resizeLast=0;collapsible=1;marginBottom=0;whiteSpace=wrap;html=1;" vertex="1" parent="WIyWlLk6GJQsqaUBKTNV-1">
          <mxGeometry x="600" y="360" width="160" height="470" as="geometry" />
        </mxCell>
        <mxCell id="xr-yjnaQC8I_60kMwEoU-10" value="&lt;div&gt;- name: String&lt;/div&gt;&lt;div&gt;- descriptionOfRoom: String&lt;/div&gt;&lt;div&gt;- north,east,west,south: Room&lt;/div&gt;&lt;div&gt;-items: ArrayList&lt;/div&gt;&lt;div&gt;-enemies: ArrayList&lt;/div&gt;" style="text;strokeColor=none;fillColor=none;align=left;verticalAlign=top;spacingLeft=4;spacingRight=4;overflow=hidden;rotatable=0;points=[[0,0.5],[1,0.5]];portConstraint=eastwest;whiteSpace=wrap;html=1;" vertex="1" parent="xr-yjnaQC8I_60kMwEoU-9">
          <mxGeometry y="26" width="160" height="114" as="geometry" />
        </mxCell>
        <mxCell id="xr-yjnaQC8I_60kMwEoU-11" value="" style="line;strokeWidth=1;fillColor=none;align=left;verticalAlign=middle;spacingTop=-1;spacingLeft=3;spacingRight=3;rotatable=0;labelPosition=right;points=[];portConstraint=eastwest;strokeColor=inherit;" vertex="1" parent="xr-yjnaQC8I_60kMwEoU-9">
          <mxGeometry y="140" width="160" as="geometry" />
        </mxCell>
        <mxCell id="xr-yjnaQC8I_60kMwEoU-12" value="&lt;div&gt;+getName(): String&lt;/div&gt;&lt;div&gt;+getDescriptionOfRoom: String&lt;/div&gt;&lt;div&gt;addEnemy(enemy: void)&lt;/div&gt;&lt;div&gt;removeEnemy(enemy: void)&lt;/div&gt;&lt;div&gt;+getEnemyByName(): Enemy&lt;/div&gt;&lt;div&gt;+getNearestEnemy(): Enemy&lt;/div&gt;&lt;div&gt;+addItem(item: Item)&lt;/div&gt;&lt;div&gt;+removeItem(item: Item)&lt;/div&gt;&lt;div&gt;+findItem (itemName: String)&lt;/div&gt;&lt;div&gt;+setNorth(north: void)&lt;/div&gt;&lt;div&gt;+setEast(east: void)&lt;/div&gt;&lt;div&gt;+setSouth(south: void)&lt;/div&gt;&lt;div&gt;+setWest(west: void)&lt;/div&gt;&lt;div&gt;+getNorth(): Room&lt;/div&gt;&lt;div&gt;+getEast(): Room&lt;/div&gt;&lt;div&gt;+getSouth(): Room&lt;/div&gt;&lt;div&gt;+getWest(): Room&lt;/div&gt;" style="text;strokeColor=none;fillColor=none;align=left;verticalAlign=top;spacingLeft=4;spacingRight=4;overflow=hidden;rotatable=0;points=[[0,0.5],[1,0.5]];portConstraint=eastwest;whiteSpace=wrap;html=1;" vertex="1" parent="xr-yjnaQC8I_60kMwEoU-9">
          <mxGeometry y="140" width="160" height="330" as="geometry" />
        </mxCell>
        <mxCell id="xr-yjnaQC8I_60kMwEoU-14" value="" style="endArrow=none;html=1;edgeStyle=orthogonalEdgeStyle;rounded=0;entryX=0.983;entryY=0.988;entryDx=0;entryDy=0;entryPerimeter=0;exitX=0.013;exitY=0.001;exitDx=0;exitDy=0;exitPerimeter=0;" edge="1" parent="xr-yjnaQC8I_60kMwEoU-9" source="xr-yjnaQC8I_60kMwEoU-12" target="xr-yjnaQC8I_60kMwEoU-10">
          <mxGeometry relative="1" as="geometry">
            <mxPoint x="-50" y="190" as="sourcePoint" />
            <mxPoint x="110" y="190" as="targetPoint" />
            <Array as="points">
              <mxPoint x="2" y="139" />
            </Array>
          </mxGeometry>
        </mxCell>
        <mxCell id="xr-yjnaQC8I_60kMwEoU-17" value="Enemy" style="swimlane;fontStyle=1;align=center;verticalAlign=top;childLayout=stackLayout;horizontal=1;startSize=26;horizontalStack=0;resizeParent=1;resizeParentMax=0;resizeLast=0;collapsible=1;marginBottom=0;whiteSpace=wrap;html=1;" vertex="1" parent="WIyWlLk6GJQsqaUBKTNV-1">
          <mxGeometry x="600" y="40" width="160" height="250" as="geometry" />
        </mxCell>
        <mxCell id="xr-yjnaQC8I_60kMwEoU-18" value="&lt;div&gt;-name: String&lt;/div&gt;&lt;div&gt;-description: String&lt;/div&gt;&lt;div&gt;-health: int&lt;/div&gt;&lt;div&gt;-weapon: Weapon&lt;/div&gt;" style="text;strokeColor=none;fillColor=none;align=left;verticalAlign=top;spacingLeft=4;spacingRight=4;overflow=hidden;rotatable=0;points=[[0,0.5],[1,0.5]];portConstraint=eastwest;whiteSpace=wrap;html=1;" vertex="1" parent="xr-yjnaQC8I_60kMwEoU-17">
          <mxGeometry y="26" width="160" height="74" as="geometry" />
        </mxCell>
        <mxCell id="xr-yjnaQC8I_60kMwEoU-19" value="" style="line;strokeWidth=1;fillColor=none;align=left;verticalAlign=middle;spacingTop=-1;spacingLeft=3;spacingRight=3;rotatable=0;labelPosition=right;points=[];portConstraint=eastwest;strokeColor=inherit;" vertex="1" parent="xr-yjnaQC8I_60kMwEoU-17">
          <mxGeometry y="100" width="160" height="8" as="geometry" />
        </mxCell>
        <mxCell id="xr-yjnaQC8I_60kMwEoU-20" value="&lt;div&gt;+getName(): String&lt;/div&gt;&lt;div&gt;+getDescription: String&lt;/div&gt;&lt;div&gt;+getHealth: int&lt;/div&gt;&lt;div&gt;+isAlive(): boolean&lt;/div&gt;&lt;div&gt;+hit(damage: int)&lt;/div&gt;&lt;div&gt;+attack(player: String)&lt;/div&gt;&lt;div&gt;+dropWeapon(): Weapon&lt;/div&gt;&lt;div&gt;+toString(): String&lt;/div&gt;+ method(type): type" style="text;strokeColor=none;fillColor=none;align=left;verticalAlign=top;spacingLeft=4;spacingRight=4;overflow=hidden;rotatable=0;points=[[0,0.5],[1,0.5]];portConstraint=eastwest;whiteSpace=wrap;html=1;" vertex="1" parent="xr-yjnaQC8I_60kMwEoU-17">
          <mxGeometry y="108" width="160" height="142" as="geometry" />
        </mxCell>
        <mxCell id="xr-yjnaQC8I_60kMwEoU-21" value="Weapon" style="swimlane;fontStyle=1;align=center;verticalAlign=top;childLayout=stackLayout;horizontal=1;startSize=26;horizontalStack=0;resizeParent=1;resizeParentMax=0;resizeLast=0;collapsible=1;marginBottom=0;whiteSpace=wrap;html=1;" vertex="1" parent="WIyWlLk6GJQsqaUBKTNV-1">
          <mxGeometry x="210" y="-120" width="160" height="170" as="geometry" />
        </mxCell>
        <mxCell id="xr-yjnaQC8I_60kMwEoU-22" value="&lt;div&gt;-damage: int&lt;/div&gt;&lt;div&gt;+weaponShortName: String&lt;/div&gt;&lt;div&gt;+weaponLongName: String&lt;/div&gt;" style="text;strokeColor=none;fillColor=none;align=left;verticalAlign=top;spacingLeft=4;spacingRight=4;overflow=hidden;rotatable=0;points=[[0,0.5],[1,0.5]];portConstraint=eastwest;whiteSpace=wrap;html=1;" vertex="1" parent="xr-yjnaQC8I_60kMwEoU-21">
          <mxGeometry y="26" width="160" height="64" as="geometry" />
        </mxCell>
        <mxCell id="xr-yjnaQC8I_60kMwEoU-23" value="" style="line;strokeWidth=1;fillColor=none;align=left;verticalAlign=middle;spacingTop=-1;spacingLeft=3;spacingRight=3;rotatable=0;labelPosition=right;points=[];portConstraint=eastwest;strokeColor=inherit;" vertex="1" parent="xr-yjnaQC8I_60kMwEoU-21">
          <mxGeometry y="90" width="160" height="8" as="geometry" />
        </mxCell>
        <mxCell id="xr-yjnaQC8I_60kMwEoU-24" value="&lt;div&gt;+canUse(): boolean&lt;/div&gt;&lt;div&gt;+remainingUses(): int&lt;/div&gt;&lt;div&gt;+use(): void&lt;/div&gt;&lt;div&gt;+getDamage(): int&lt;/div&gt;" style="text;strokeColor=none;fillColor=none;align=left;verticalAlign=top;spacingLeft=4;spacingRight=4;overflow=hidden;rotatable=0;points=[[0,0.5],[1,0.5]];portConstraint=eastwest;whiteSpace=wrap;html=1;" vertex="1" parent="xr-yjnaQC8I_60kMwEoU-21">
          <mxGeometry y="98" width="160" height="72" as="geometry" />
        </mxCell>
        <mxCell id="xr-yjnaQC8I_60kMwEoU-25" value="MeleeWeapon" style="swimlane;fontStyle=1;align=center;verticalAlign=top;childLayout=stackLayout;horizontal=1;startSize=26;horizontalStack=0;resizeParent=1;resizeParentMax=0;resizeLast=0;collapsible=1;marginBottom=0;whiteSpace=wrap;html=1;" vertex="1" parent="WIyWlLk6GJQsqaUBKTNV-1">
          <mxGeometry x="80" y="170" width="160" height="140" as="geometry" />
        </mxCell>
        <mxCell id="xr-yjnaQC8I_60kMwEoU-26" value="+weaponShortName: String&lt;div&gt;+weaponLongName: String&lt;/div&gt;&lt;div&gt;+damage: int&lt;/div&gt;&lt;div&gt;&lt;br&gt;&lt;/div&gt;" style="text;strokeColor=none;fillColor=none;align=left;verticalAlign=top;spacingLeft=4;spacingRight=4;overflow=hidden;rotatable=0;points=[[0,0.5],[1,0.5]];portConstraint=eastwest;whiteSpace=wrap;html=1;" vertex="1" parent="xr-yjnaQC8I_60kMwEoU-25">
          <mxGeometry y="26" width="160" height="54" as="geometry" />
        </mxCell>
        <mxCell id="xr-yjnaQC8I_60kMwEoU-27" value="" style="line;strokeWidth=1;fillColor=none;align=left;verticalAlign=middle;spacingTop=-1;spacingLeft=3;spacingRight=3;rotatable=0;labelPosition=right;points=[];portConstraint=eastwest;strokeColor=inherit;" vertex="1" parent="xr-yjnaQC8I_60kMwEoU-25">
          <mxGeometry y="80" width="160" height="8" as="geometry" />
        </mxCell>
        <mxCell id="xr-yjnaQC8I_60kMwEoU-28" value="+canUse(): boolean&lt;div&gt;+remainingUses(): int&lt;/div&gt;&lt;div&gt;+use(): void&lt;/div&gt;" style="text;strokeColor=none;fillColor=none;align=left;verticalAlign=top;spacingLeft=4;spacingRight=4;overflow=hidden;rotatable=0;points=[[0,0.5],[1,0.5]];portConstraint=eastwest;whiteSpace=wrap;html=1;" vertex="1" parent="xr-yjnaQC8I_60kMwEoU-25">
          <mxGeometry y="88" width="160" height="52" as="geometry" />
        </mxCell>
        <mxCell id="xr-yjnaQC8I_60kMwEoU-29" value="RangedWeapon" style="swimlane;fontStyle=1;align=center;verticalAlign=top;childLayout=stackLayout;horizontal=1;startSize=26;horizontalStack=0;resizeParent=1;resizeParentMax=0;resizeLast=0;collapsible=1;marginBottom=0;whiteSpace=wrap;html=1;" vertex="1" parent="WIyWlLk6GJQsqaUBKTNV-1">
          <mxGeometry x="270" y="170" width="160" height="170" as="geometry" />
        </mxCell>
        <mxCell id="xr-yjnaQC8I_60kMwEoU-30" value="-ammo: int&lt;div&gt;+weaponShortName: String&lt;/div&gt;&lt;div&gt;+weaponLongName: String&lt;/div&gt;&lt;div&gt;+damage int&lt;/div&gt;" style="text;strokeColor=none;fillColor=none;align=left;verticalAlign=top;spacingLeft=4;spacingRight=4;overflow=hidden;rotatable=0;points=[[0,0.5],[1,0.5]];portConstraint=eastwest;whiteSpace=wrap;html=1;" vertex="1" parent="xr-yjnaQC8I_60kMwEoU-29">
          <mxGeometry y="26" width="160" height="74" as="geometry" />
        </mxCell>
        <mxCell id="xr-yjnaQC8I_60kMwEoU-31" value="" style="line;strokeWidth=1;fillColor=none;align=left;verticalAlign=middle;spacingTop=-1;spacingLeft=3;spacingRight=3;rotatable=0;labelPosition=right;points=[];portConstraint=eastwest;strokeColor=inherit;" vertex="1" parent="xr-yjnaQC8I_60kMwEoU-29">
          <mxGeometry y="100" width="160" height="8" as="geometry" />
        </mxCell>
        <mxCell id="xr-yjnaQC8I_60kMwEoU-32" value="+canUse(): boolean&lt;div&gt;+remainingUses(): int&lt;/div&gt;&lt;div&gt;+use(): void&lt;/div&gt;" style="text;strokeColor=none;fillColor=none;align=left;verticalAlign=top;spacingLeft=4;spacingRight=4;overflow=hidden;rotatable=0;points=[[0,0.5],[1,0.5]];portConstraint=eastwest;whiteSpace=wrap;html=1;" vertex="1" parent="xr-yjnaQC8I_60kMwEoU-29">
          <mxGeometry y="108" width="160" height="62" as="geometry" />
        </mxCell>
        <mxCell id="xr-yjnaQC8I_60kMwEoU-33" value="Item" style="swimlane;fontStyle=1;align=center;verticalAlign=top;childLayout=stackLayout;horizontal=1;startSize=26;horizontalStack=0;resizeParent=1;resizeParentMax=0;resizeLast=0;collapsible=1;marginBottom=0;whiteSpace=wrap;html=1;" vertex="1" parent="WIyWlLk6GJQsqaUBKTNV-1">
          <mxGeometry x="600" y="920" width="160" height="110" as="geometry" />
        </mxCell>
        <mxCell id="xr-yjnaQC8I_60kMwEoU-34" value="-shortName: String&lt;div&gt;-longName: String&lt;/div&gt;" style="text;strokeColor=none;fillColor=none;align=left;verticalAlign=top;spacingLeft=4;spacingRight=4;overflow=hidden;rotatable=0;points=[[0,0.5],[1,0.5]];portConstraint=eastwest;whiteSpace=wrap;html=1;" vertex="1" parent="xr-yjnaQC8I_60kMwEoU-33">
          <mxGeometry y="26" width="160" height="34" as="geometry" />
        </mxCell>
        <mxCell id="xr-yjnaQC8I_60kMwEoU-35" value="" style="line;strokeWidth=1;fillColor=none;align=left;verticalAlign=middle;spacingTop=-1;spacingLeft=3;spacingRight=3;rotatable=0;labelPosition=right;points=[];portConstraint=eastwest;strokeColor=inherit;" vertex="1" parent="xr-yjnaQC8I_60kMwEoU-33">
          <mxGeometry y="60" width="160" height="8" as="geometry" />
        </mxCell>
        <mxCell id="xr-yjnaQC8I_60kMwEoU-36" value="+getShortName(): String&lt;div&gt;+getLongName(): String&lt;/div&gt;" style="text;strokeColor=none;fillColor=none;align=left;verticalAlign=top;spacingLeft=4;spacingRight=4;overflow=hidden;rotatable=0;points=[[0,0.5],[1,0.5]];portConstraint=eastwest;whiteSpace=wrap;html=1;" vertex="1" parent="xr-yjnaQC8I_60kMwEoU-33">
          <mxGeometry y="68" width="160" height="42" as="geometry" />
        </mxCell>
        <mxCell id="xr-yjnaQC8I_60kMwEoU-37" value="UserInterface" style="swimlane;fontStyle=1;align=center;verticalAlign=top;childLayout=stackLayout;horizontal=1;startSize=26;horizontalStack=0;resizeParent=1;resizeParentMax=0;resizeLast=0;collapsible=1;marginBottom=0;whiteSpace=wrap;html=1;" vertex="1" parent="WIyWlLk6GJQsqaUBKTNV-1">
          <mxGeometry x="80" y="760" width="160" height="86" as="geometry" />
        </mxCell>
        <mxCell id="xr-yjnaQC8I_60kMwEoU-38" value="-game: AdventureGame" style="text;strokeColor=none;fillColor=none;align=left;verticalAlign=top;spacingLeft=4;spacingRight=4;overflow=hidden;rotatable=0;points=[[0,0.5],[1,0.5]];portConstraint=eastwest;whiteSpace=wrap;html=1;" vertex="1" parent="xr-yjnaQC8I_60kMwEoU-37">
          <mxGeometry y="26" width="160" height="26" as="geometry" />
        </mxCell>
        <mxCell id="xr-yjnaQC8I_60kMwEoU-39" value="" style="line;strokeWidth=1;fillColor=none;align=left;verticalAlign=middle;spacingTop=-1;spacingLeft=3;spacingRight=3;rotatable=0;labelPosition=right;points=[];portConstraint=eastwest;strokeColor=inherit;" vertex="1" parent="xr-yjnaQC8I_60kMwEoU-37">
          <mxGeometry y="52" width="160" height="8" as="geometry" />
        </mxCell>
        <mxCell id="xr-yjnaQC8I_60kMwEoU-40" value="+startGame(): void&lt;div&gt;&lt;br&gt;&lt;/div&gt;" style="text;strokeColor=none;fillColor=none;align=left;verticalAlign=top;spacingLeft=4;spacingRight=4;overflow=hidden;rotatable=0;points=[[0,0.5],[1,0.5]];portConstraint=eastwest;whiteSpace=wrap;html=1;" vertex="1" parent="xr-yjnaQC8I_60kMwEoU-37">
          <mxGeometry y="60" width="160" height="26" as="geometry" />
        </mxCell>
        <mxCell id="xr-yjnaQC8I_60kMwEoU-41" value="Main" style="swimlane;fontStyle=1;align=center;verticalAlign=top;childLayout=stackLayout;horizontal=1;startSize=26;horizontalStack=0;resizeParent=1;resizeParentMax=0;resizeLast=0;collapsible=1;marginBottom=0;whiteSpace=wrap;html=1;" vertex="1" parent="WIyWlLk6GJQsqaUBKTNV-1">
          <mxGeometry x="80" y="960" width="160" height="86" as="geometry" />
        </mxCell>
        <mxCell id="xr-yjnaQC8I_60kMwEoU-42" value="+ field: type" style="text;strokeColor=none;fillColor=none;align=left;verticalAlign=top;spacingLeft=4;spacingRight=4;overflow=hidden;rotatable=0;points=[[0,0.5],[1,0.5]];portConstraint=eastwest;whiteSpace=wrap;html=1;" vertex="1" parent="xr-yjnaQC8I_60kMwEoU-41">
          <mxGeometry y="26" width="160" height="26" as="geometry" />
        </mxCell>
        <mxCell id="xr-yjnaQC8I_60kMwEoU-43" value="" style="line;strokeWidth=1;fillColor=none;align=left;verticalAlign=middle;spacingTop=-1;spacingLeft=3;spacingRight=3;rotatable=0;labelPosition=right;points=[];portConstraint=eastwest;strokeColor=inherit;" vertex="1" parent="xr-yjnaQC8I_60kMwEoU-41">
          <mxGeometry y="52" width="160" height="8" as="geometry" />
        </mxCell>
        <mxCell id="xr-yjnaQC8I_60kMwEoU-44" value="+main(): void" style="text;strokeColor=none;fillColor=none;align=left;verticalAlign=top;spacingLeft=4;spacingRight=4;overflow=hidden;rotatable=0;points=[[0,0.5],[1,0.5]];portConstraint=eastwest;whiteSpace=wrap;html=1;" vertex="1" parent="xr-yjnaQC8I_60kMwEoU-41">
          <mxGeometry y="60" width="160" height="26" as="geometry" />
        </mxCell>
        <mxCell id="xr-yjnaQC8I_60kMwEoU-45" value="Map" style="swimlane;fontStyle=1;align=center;verticalAlign=top;childLayout=stackLayout;horizontal=1;startSize=26;horizontalStack=0;resizeParent=1;resizeParentMax=0;resizeLast=0;collapsible=1;marginBottom=0;whiteSpace=wrap;html=1;" vertex="1" parent="WIyWlLk6GJQsqaUBKTNV-1">
          <mxGeometry x="-160" y="478" width="160" height="86" as="geometry" />
        </mxCell>
        <mxCell id="xr-yjnaQC8I_60kMwEoU-46" value="+ field: type" style="text;strokeColor=none;fillColor=none;align=left;verticalAlign=top;spacingLeft=4;spacingRight=4;overflow=hidden;rotatable=0;points=[[0,0.5],[1,0.5]];portConstraint=eastwest;whiteSpace=wrap;html=1;" vertex="1" parent="xr-yjnaQC8I_60kMwEoU-45">
          <mxGeometry y="26" width="160" height="26" as="geometry" />
        </mxCell>
        <mxCell id="xr-yjnaQC8I_60kMwEoU-47" value="" style="line;strokeWidth=1;fillColor=none;align=left;verticalAlign=middle;spacingTop=-1;spacingLeft=3;spacingRight=3;rotatable=0;labelPosition=right;points=[];portConstraint=eastwest;strokeColor=inherit;" vertex="1" parent="xr-yjnaQC8I_60kMwEoU-45">
          <mxGeometry y="52" width="160" height="8" as="geometry" />
        </mxCell>
        <mxCell id="xr-yjnaQC8I_60kMwEoU-48" value="+createRooms(): Room" style="text;strokeColor=none;fillColor=none;align=left;verticalAlign=top;spacingLeft=4;spacingRight=4;overflow=hidden;rotatable=0;points=[[0,0.5],[1,0.5]];portConstraint=eastwest;whiteSpace=wrap;html=1;" vertex="1" parent="xr-yjnaQC8I_60kMwEoU-45">
          <mxGeometry y="60" width="160" height="26" as="geometry" />
        </mxCell>
        <mxCell id="xr-yjnaQC8I_60kMwEoU-49" value="Food" style="swimlane;fontStyle=1;align=center;verticalAlign=top;childLayout=stackLayout;horizontal=1;startSize=26;horizontalStack=0;resizeParent=1;resizeParentMax=0;resizeLast=0;collapsible=1;marginBottom=0;whiteSpace=wrap;html=1;" vertex="1" parent="WIyWlLk6GJQsqaUBKTNV-1">
          <mxGeometry x="600" y="1120" width="160" height="114" as="geometry" />
        </mxCell>
        <mxCell id="xr-yjnaQC8I_60kMwEoU-50" value="-healthPoints: int&lt;div&gt;+foodShortName: String&lt;/div&gt;&lt;div&gt;+foodLongName: String&lt;/div&gt;" style="text;strokeColor=none;fillColor=none;align=left;verticalAlign=top;spacingLeft=4;spacingRight=4;overflow=hidden;rotatable=0;points=[[0,0.5],[1,0.5]];portConstraint=eastwest;whiteSpace=wrap;html=1;" vertex="1" parent="xr-yjnaQC8I_60kMwEoU-49">
          <mxGeometry y="26" width="160" height="54" as="geometry" />
        </mxCell>
        <mxCell id="xr-yjnaQC8I_60kMwEoU-51" value="" style="line;strokeWidth=1;fillColor=none;align=left;verticalAlign=middle;spacingTop=-1;spacingLeft=3;spacingRight=3;rotatable=0;labelPosition=right;points=[];portConstraint=eastwest;strokeColor=inherit;" vertex="1" parent="xr-yjnaQC8I_60kMwEoU-49">
          <mxGeometry y="80" width="160" height="8" as="geometry" />
        </mxCell>
        <mxCell id="xr-yjnaQC8I_60kMwEoU-52" value="+getHealthPoints(): int" style="text;strokeColor=none;fillColor=none;align=left;verticalAlign=top;spacingLeft=4;spacingRight=4;overflow=hidden;rotatable=0;points=[[0,0.5],[1,0.5]];portConstraint=eastwest;whiteSpace=wrap;html=1;" vertex="1" parent="xr-yjnaQC8I_60kMwEoU-49">
          <mxGeometry y="88" width="160" height="26" as="geometry" />
        </mxCell>
        <mxCell id="xr-yjnaQC8I_60kMwEoU-57" value="" style="endArrow=open;endFill=1;endSize=12;html=1;rounded=0;entryX=0.507;entryY=1.013;entryDx=0;entryDy=0;entryPerimeter=0;exitX=0.5;exitY=0;exitDx=0;exitDy=0;" edge="1" parent="WIyWlLk6GJQsqaUBKTNV-1" source="xr-yjnaQC8I_60kMwEoU-9" target="xr-yjnaQC8I_60kMwEoU-20">
          <mxGeometry width="160" relative="1" as="geometry">
            <mxPoint x="450" y="570" as="sourcePoint" />
            <mxPoint x="610" y="570" as="targetPoint" />
          </mxGeometry>
        </mxCell>
        <mxCell id="xr-yjnaQC8I_60kMwEoU-58" value="0..*" style="text;html=1;align=center;verticalAlign=middle;resizable=0;points=[];autosize=1;strokeColor=none;fillColor=none;" vertex="1" parent="WIyWlLk6GJQsqaUBKTNV-1">
          <mxGeometry x="640" y="330" width="40" height="30" as="geometry" />
        </mxCell>
        <mxCell id="xr-yjnaQC8I_60kMwEoU-64" value="0..*" style="text;html=1;align=center;verticalAlign=middle;resizable=0;points=[];autosize=1;strokeColor=none;fillColor=none;" vertex="1" parent="WIyWlLk6GJQsqaUBKTNV-1">
          <mxGeometry x="680" y="868" width="40" height="30" as="geometry" />
        </mxCell>
        <mxCell id="xr-yjnaQC8I_60kMwEoU-68" value="" style="endArrow=open;endFill=1;endSize=12;html=1;rounded=0;exitX=0.5;exitY=0;exitDx=0;exitDy=0;entryX=1.015;entryY=1.011;entryDx=0;entryDy=0;entryPerimeter=0;" edge="1" parent="WIyWlLk6GJQsqaUBKTNV-1" source="xr-yjnaQC8I_60kMwEoU-4" target="xr-yjnaQC8I_60kMwEoU-24">
          <mxGeometry width="160" relative="1" as="geometry">
            <mxPoint x="480" y="310" as="sourcePoint" />
            <mxPoint x="530" y="340" as="targetPoint" />
            <Array as="points">
              <mxPoint x="440" y="51" />
            </Array>
          </mxGeometry>
        </mxCell>
        <mxCell id="xr-yjnaQC8I_60kMwEoU-71" value="" style="endArrow=open;endFill=1;endSize=12;html=1;rounded=0;entryX=0;entryY=0;entryDx=0;entryDy=0;exitX=0.498;exitY=1.008;exitDx=0;exitDy=0;exitPerimeter=0;" edge="1" parent="WIyWlLk6GJQsqaUBKTNV-1" source="xr-yjnaQC8I_60kMwEoU-7" target="xr-yjnaQC8I_60kMwEoU-33">
          <mxGeometry width="160" relative="1" as="geometry">
            <mxPoint x="230" y="850" as="sourcePoint" />
            <mxPoint x="390" y="850" as="targetPoint" />
          </mxGeometry>
        </mxCell>
        <mxCell id="xr-yjnaQC8I_60kMwEoU-72" value="" style="endArrow=open;endFill=1;endSize=12;html=1;rounded=0;exitX=0.5;exitY=0;exitDx=0;exitDy=0;entryX=0.5;entryY=1;entryDx=0;entryDy=0;entryPerimeter=0;" edge="1" parent="WIyWlLk6GJQsqaUBKTNV-1" source="xr-yjnaQC8I_60kMwEoU-49" target="xr-yjnaQC8I_60kMwEoU-36">
          <mxGeometry width="160" relative="1" as="geometry">
            <mxPoint x="230" y="1030" as="sourcePoint" />
            <mxPoint x="530" y="1320" as="targetPoint" />
          </mxGeometry>
        </mxCell>
        <mxCell id="xr-yjnaQC8I_60kMwEoU-73" value="0..1" style="text;html=1;align=center;verticalAlign=middle;resizable=0;points=[];autosize=1;strokeColor=none;fillColor=none;" vertex="1" parent="WIyWlLk6GJQsqaUBKTNV-1">
          <mxGeometry x="450" y="225" width="40" height="30" as="geometry" />
        </mxCell>
        <mxCell id="xr-yjnaQC8I_60kMwEoU-74" value="0..*" style="text;html=1;align=center;verticalAlign=middle;resizable=0;points=[];autosize=1;strokeColor=none;fillColor=none;" vertex="1" parent="WIyWlLk6GJQsqaUBKTNV-1">
          <mxGeometry x="470" y="838" width="40" height="30" as="geometry" />
        </mxCell>
        <mxCell id="xr-yjnaQC8I_60kMwEoU-76" value="" style="endArrow=open;endFill=1;endSize=12;html=1;rounded=0;exitX=0.5;exitY=0;exitDx=0;exitDy=0;entryX=0.488;entryY=1.021;entryDx=0;entryDy=0;entryPerimeter=0;" edge="1" parent="WIyWlLk6GJQsqaUBKTNV-1" source="xr-yjnaQC8I_60kMwEoU-41" target="xr-yjnaQC8I_60kMwEoU-40">
          <mxGeometry width="160" relative="1" as="geometry">
            <mxPoint x="230" y="970" as="sourcePoint" />
            <mxPoint x="390" y="970" as="targetPoint" />
          </mxGeometry>
        </mxCell>
        <mxCell id="xr-yjnaQC8I_60kMwEoU-77" value="Equip" style="swimlane;fontStyle=1;align=center;verticalAlign=top;childLayout=stackLayout;horizontal=1;startSize=26;horizontalStack=0;resizeParent=1;resizeParentMax=0;resizeLast=0;collapsible=1;marginBottom=0;whiteSpace=wrap;html=1;" vertex="1" parent="WIyWlLk6GJQsqaUBKTNV-1">
          <mxGeometry x="80" y="1120" width="160" height="124" as="geometry" />
        </mxCell>
        <mxCell id="xr-yjnaQC8I_60kMwEoU-78" value="IS_WEAPON&lt;div&gt;IS_NOT_FOUND&lt;/div&gt;&lt;div&gt;IS_NOT_WEAPON&lt;/div&gt;" style="text;strokeColor=none;fillColor=none;align=left;verticalAlign=top;spacingLeft=4;spacingRight=4;overflow=hidden;rotatable=0;points=[[0,0.5],[1,0.5]];portConstraint=eastwest;whiteSpace=wrap;html=1;" vertex="1" parent="xr-yjnaQC8I_60kMwEoU-77">
          <mxGeometry y="26" width="160" height="64" as="geometry" />
        </mxCell>
        <mxCell id="xr-yjnaQC8I_60kMwEoU-79" value="" style="line;strokeWidth=1;fillColor=none;align=left;verticalAlign=middle;spacingTop=-1;spacingLeft=3;spacingRight=3;rotatable=0;labelPosition=right;points=[];portConstraint=eastwest;strokeColor=inherit;" vertex="1" parent="xr-yjnaQC8I_60kMwEoU-77">
          <mxGeometry y="90" width="160" height="8" as="geometry" />
        </mxCell>
        <mxCell id="xr-yjnaQC8I_60kMwEoU-80" value="+ method(type): type" style="text;strokeColor=none;fillColor=none;align=left;verticalAlign=top;spacingLeft=4;spacingRight=4;overflow=hidden;rotatable=0;points=[[0,0.5],[1,0.5]];portConstraint=eastwest;whiteSpace=wrap;html=1;" vertex="1" parent="xr-yjnaQC8I_60kMwEoU-77">
          <mxGeometry y="98" width="160" height="26" as="geometry" />
        </mxCell>
        <mxCell id="xr-yjnaQC8I_60kMwEoU-81" value="Eat" style="swimlane;fontStyle=1;align=center;verticalAlign=top;childLayout=stackLayout;horizontal=1;startSize=26;horizontalStack=0;resizeParent=1;resizeParentMax=0;resizeLast=0;collapsible=1;marginBottom=0;whiteSpace=wrap;html=1;" vertex="1" parent="WIyWlLk6GJQsqaUBKTNV-1">
          <mxGeometry x="280" y="1120" width="160" height="114" as="geometry" />
        </mxCell>
        <mxCell id="xr-yjnaQC8I_60kMwEoU-82" value="IS_FOOD&lt;div&gt;IS_NOT_FOUND&lt;/div&gt;&lt;div&gt;IS_NOT_FOOD&lt;/div&gt;" style="text;strokeColor=none;fillColor=none;align=left;verticalAlign=top;spacingLeft=4;spacingRight=4;overflow=hidden;rotatable=0;points=[[0,0.5],[1,0.5]];portConstraint=eastwest;whiteSpace=wrap;html=1;" vertex="1" parent="xr-yjnaQC8I_60kMwEoU-81">
          <mxGeometry y="26" width="160" height="54" as="geometry" />
        </mxCell>
        <mxCell id="xr-yjnaQC8I_60kMwEoU-83" value="" style="line;strokeWidth=1;fillColor=none;align=left;verticalAlign=middle;spacingTop=-1;spacingLeft=3;spacingRight=3;rotatable=0;labelPosition=right;points=[];portConstraint=eastwest;strokeColor=inherit;" vertex="1" parent="xr-yjnaQC8I_60kMwEoU-81">
          <mxGeometry y="80" width="160" height="8" as="geometry" />
        </mxCell>
        <mxCell id="xr-yjnaQC8I_60kMwEoU-84" value="+ method(type): type" style="text;strokeColor=none;fillColor=none;align=left;verticalAlign=top;spacingLeft=4;spacingRight=4;overflow=hidden;rotatable=0;points=[[0,0.5],[1,0.5]];portConstraint=eastwest;whiteSpace=wrap;html=1;" vertex="1" parent="xr-yjnaQC8I_60kMwEoU-81">
          <mxGeometry y="88" width="160" height="26" as="geometry" />
        </mxCell>
        <mxCell id="xr-yjnaQC8I_60kMwEoU-86" value="" style="endArrow=none;html=1;rounded=0;exitX=0.5;exitY=0;exitDx=0;exitDy=0;entryX=0.567;entryY=-0.005;entryDx=0;entryDy=0;entryPerimeter=0;" edge="1" parent="WIyWlLk6GJQsqaUBKTNV-1" source="xr-yjnaQC8I_60kMwEoU-25" target="xr-yjnaQC8I_60kMwEoU-29">
          <mxGeometry width="50" height="50" relative="1" as="geometry">
            <mxPoint x="280" y="220" as="sourcePoint" />
            <mxPoint x="330" y="170" as="targetPoint" />
            <Array as="points">
              <mxPoint x="160" y="120" />
              <mxPoint x="361" y="120" />
            </Array>
          </mxGeometry>
        </mxCell>
        <mxCell id="xr-yjnaQC8I_60kMwEoU-87" value="" style="endArrow=classic;html=1;rounded=0;entryX=0.442;entryY=1.041;entryDx=0;entryDy=0;entryPerimeter=0;" edge="1" parent="WIyWlLk6GJQsqaUBKTNV-1" target="xr-yjnaQC8I_60kMwEoU-24">
          <mxGeometry width="50" height="50" relative="1" as="geometry">
            <mxPoint x="281" y="120" as="sourcePoint" />
            <mxPoint x="330" y="170" as="targetPoint" />
          </mxGeometry>
        </mxCell>
        <mxCell id="xr-yjnaQC8I_60kMwEoU-92" value="1" style="endArrow=open;html=1;endSize=12;startArrow=diamondThin;startSize=14;startFill=0;edgeStyle=orthogonalEdgeStyle;align=left;verticalAlign=bottom;rounded=0;entryX=-0.009;entryY=0.013;entryDx=0;entryDy=0;entryPerimeter=0;exitX=0.991;exitY=0.116;exitDx=0;exitDy=0;exitPerimeter=0;" edge="1" parent="WIyWlLk6GJQsqaUBKTNV-1" source="xr-yjnaQC8I_60kMwEoU-7" target="xr-yjnaQC8I_60kMwEoU-12">
          <mxGeometry x="-1" y="3" relative="1" as="geometry">
            <mxPoint x="230" y="430" as="sourcePoint" />
            <mxPoint x="390" y="430" as="targetPoint" />
          </mxGeometry>
        </mxCell>
        <mxCell id="xr-yjnaQC8I_60kMwEoU-93" value="1" style="text;html=1;align=center;verticalAlign=middle;resizable=0;points=[];autosize=1;strokeColor=none;fillColor=none;" vertex="1" parent="WIyWlLk6GJQsqaUBKTNV-1">
          <mxGeometry x="575" y="478" width="30" height="30" as="geometry" />
        </mxCell>
        <mxCell id="xr-yjnaQC8I_60kMwEoU-95" value="1" style="endArrow=open;html=1;endSize=12;startArrow=diamondThin;startSize=14;startFill=0;edgeStyle=orthogonalEdgeStyle;align=left;verticalAlign=bottom;rounded=0;entryX=1.001;entryY=-0.072;entryDx=0;entryDy=0;entryPerimeter=0;exitX=0.008;exitY=0.451;exitDx=0;exitDy=0;exitPerimeter=0;" edge="1" parent="WIyWlLk6GJQsqaUBKTNV-1" source="xr-yjnaQC8I_60kMwEoU-3" target="xr-yjnaQC8I_60kMwEoU-48">
          <mxGeometry x="-1" y="3" relative="1" as="geometry">
            <mxPoint x="290" y="490" as="sourcePoint" />
            <mxPoint x="450" y="490" as="targetPoint" />
          </mxGeometry>
        </mxCell>
        <mxCell id="xr-yjnaQC8I_60kMwEoU-96" value="1" style="text;html=1;align=center;verticalAlign=middle;resizable=0;points=[];autosize=1;strokeColor=none;fillColor=none;" vertex="1" parent="WIyWlLk6GJQsqaUBKTNV-1">
          <mxGeometry x="55" y="508" width="30" height="30" as="geometry" />
        </mxCell>
        <mxCell id="xr-yjnaQC8I_60kMwEoU-97" value="1" style="text;html=1;align=center;verticalAlign=middle;resizable=0;points=[];autosize=1;strokeColor=none;fillColor=none;" vertex="1" parent="WIyWlLk6GJQsqaUBKTNV-1">
          <mxGeometry x="-5" y="508" width="30" height="30" as="geometry" />
        </mxCell>
        <mxCell id="xr-yjnaQC8I_60kMwEoU-98" value="1" style="endArrow=open;html=1;endSize=12;startArrow=diamondThin;startSize=14;startFill=0;edgeStyle=orthogonalEdgeStyle;align=left;verticalAlign=bottom;rounded=0;entryX=-0.009;entryY=0.16;entryDx=0;entryDy=0;entryPerimeter=0;" edge="1" parent="WIyWlLk6GJQsqaUBKTNV-1" target="xr-yjnaQC8I_60kMwEoU-7">
          <mxGeometry x="-1" y="3" relative="1" as="geometry">
            <mxPoint x="240" y="518" as="sourcePoint" />
            <mxPoint x="450" y="490" as="targetPoint" />
          </mxGeometry>
        </mxCell>
        <mxCell id="xr-yjnaQC8I_60kMwEoU-99" value="1" style="text;html=1;align=center;verticalAlign=middle;resizable=0;points=[];autosize=1;strokeColor=none;fillColor=none;" vertex="1" parent="WIyWlLk6GJQsqaUBKTNV-1">
          <mxGeometry x="325" y="488" width="30" height="30" as="geometry" />
        </mxCell>
        <mxCell id="xr-yjnaQC8I_60kMwEoU-100" value="1" style="endArrow=open;html=1;endSize=12;startArrow=diamondThin;startSize=14;startFill=0;edgeStyle=orthogonalEdgeStyle;align=left;verticalAlign=bottom;rounded=0;exitX=0.5;exitY=0;exitDx=0;exitDy=0;" edge="1" parent="WIyWlLk6GJQsqaUBKTNV-1" source="xr-yjnaQC8I_60kMwEoU-37">
          <mxGeometry x="-1" y="3" relative="1" as="geometry">
            <mxPoint x="290" y="490" as="sourcePoint" />
            <mxPoint x="160" y="670" as="targetPoint" />
          </mxGeometry>
        </mxCell>
        <mxCell id="xr-yjnaQC8I_60kMwEoU-102" value="1" style="text;html=1;align=center;verticalAlign=middle;resizable=0;points=[];autosize=1;strokeColor=none;fillColor=none;" vertex="1" parent="WIyWlLk6GJQsqaUBKTNV-1">
          <mxGeometry x="155" y="668" width="30" height="30" as="geometry" />
        </mxCell>
        <mxCell id="xr-yjnaQC8I_60kMwEoU-106" value="1" style="endArrow=open;html=1;endSize=12;startArrow=diamondThin;startSize=14;startFill=0;edgeStyle=orthogonalEdgeStyle;align=left;verticalAlign=bottom;rounded=0;exitX=0.5;exitY=0;exitDx=0;exitDy=0;entryX=1;entryY=0.5;entryDx=0;entryDy=0;" edge="1" parent="WIyWlLk6GJQsqaUBKTNV-1" source="xr-yjnaQC8I_60kMwEoU-17" target="xr-yjnaQC8I_60kMwEoU-22">
          <mxGeometry x="-1" y="3" relative="1" as="geometry">
            <mxPoint x="290" y="240" as="sourcePoint" />
            <mxPoint x="450" y="240" as="targetPoint" />
          </mxGeometry>
        </mxCell>
        <mxCell id="xr-yjnaQC8I_60kMwEoU-107" value="1" style="text;html=1;align=center;verticalAlign=middle;resizable=0;points=[];autosize=1;strokeColor=none;fillColor=none;" vertex="1" parent="WIyWlLk6GJQsqaUBKTNV-1">
          <mxGeometry x="645" y="8" width="30" height="30" as="geometry" />
        </mxCell>
        <mxCell id="xr-yjnaQC8I_60kMwEoU-108" value="1" style="text;html=1;align=center;verticalAlign=middle;resizable=0;points=[];autosize=1;strokeColor=none;fillColor=none;" vertex="1" parent="WIyWlLk6GJQsqaUBKTNV-1">
          <mxGeometry x="375" y="-62" width="30" height="30" as="geometry" />
        </mxCell>
        <mxCell id="xr-yjnaQC8I_60kMwEoU-109" value="" style="endArrow=open;endFill=1;endSize=12;html=1;rounded=0;entryX=0.5;entryY=0;entryDx=0;entryDy=0;exitX=0.505;exitY=1.015;exitDx=0;exitDy=0;exitPerimeter=0;" edge="1" parent="WIyWlLk6GJQsqaUBKTNV-1" source="xr-yjnaQC8I_60kMwEoU-12" target="xr-yjnaQC8I_60kMwEoU-33">
          <mxGeometry width="160" relative="1" as="geometry">
            <mxPoint x="290" y="720" as="sourcePoint" />
            <mxPoint x="450" y="720" as="targetPoint" />
          </mxGeometry>
        </mxCell>
      </root>
    </mxGraphModel>
  </diagram>
</mxfile>
